<?xml version="1.0" encoding="utf-8"?>
<!-- Generator: Adobe Illustrator 21.0.0, SVG Export Plug-In . SVG Version: 6.00 Build 0)  -->
<svg version="1.1" id="Layer_1" xmlns="http://www.w3.org/2000/svg" xmlns:xlink="http://www.w3.org/1999/xlink" x="0px" y="0px"
	 viewBox="0 0 1000 600" style="enable-background:new 0 0 1000 600;" xml:space="preserve">
<style type="text/css">
	.st0{fill:url(#SVGID_1_);}
	.st1{fill:url(#SVGID_2_);}
	.st2{fill:url(#SVGID_3_);}
	.st3{fill:url(#SVGID_4_);}
	.st4{fill:url(#SVGID_5_);}
	.st5{fill:url(#SVGID_6_);}
	.st6{fill:url(#SVGID_7_);}
	.st7{fill:url(#SVGID_8_);}
	.st8{fill:url(#SVGID_9_);}
	.st9{fill:url(#SVGID_10_);}
	.st10{fill:url(#SVGID_11_);}
	.st11{fill:none;}
	.st12{fill:url(#SVGID_12_);}
</style>
<g>
	<g>
		<linearGradient id="SVGID_1_" gradientUnits="userSpaceOnUse" x1="298.3635" y1="549.8963" x2="298.3635" y2="450.6372">
			<stop  offset="0" style="stop-color:#FF699D"/>
			<stop  offset="1" style="stop-color:#FECB9A"/>
		</linearGradient>
		<path class="st0" d="M262,485.9c0-12.2,3.2-21.8,9.6-28.9c6.8-7.1,15.7-10.6,26.7-10.6c10.9,0,19.8,3.6,26.7,10.6
			c6.5,7.2,9.8,16.9,9.8,28.9c0,12-3.3,21.6-9.8,28.7c-6.7,7-15.6,10.4-26.7,10.4c-11.3,0-20.2-3.5-26.7-10.4
			C265.2,507.6,262,498.1,262,485.9z M277.4,485.9c0,8.4,1.8,14.8,5.4,19.1c3.6,4.5,8.8,6.7,15.4,6.7c6.5,0,11.7-2.2,15.4-6.7
			c3.8-4.6,5.6-11,5.6-19.1c0-8.1-1.9-14.5-5.6-19.3c-3.8-4.5-8.9-6.7-15.4-6.7c-6.7,0-11.8,2.2-15.4,6.7
			C279.2,471.1,277.4,477.5,277.4,485.9z"/>
		<linearGradient id="SVGID_2_" gradientUnits="userSpaceOnUse" x1="366.2271" y1="549.8963" x2="366.2271" y2="450.6372">
			<stop  offset="0" style="stop-color:#FF699D"/>
			<stop  offset="1" style="stop-color:#FECB9A"/>
		</linearGradient>
		<path class="st1" d="M373.8,523.3h-15.4l-20.2-57.8h16.1l11.5,40.6l10.2-35.4c1.2-3.5,3.5-5.2,6.9-5.2h11.3L373.8,523.3z"/>
		<g>
			<linearGradient id="SVGID_3_" gradientUnits="userSpaceOnUse" x1="426.596" y1="536.551" x2="426.596" y2="464.6912">
				<stop  offset="0" style="stop-color:#4D4298"/>
				<stop  offset="1" style="stop-color:#6C58C9"/>
			</linearGradient>
			<path class="st2" d="M419,523.3v-61.5h-22.1v-5.4c0-2.2,0.8-4,2.3-5.5s3.4-2.3,5.5-2.3h51.7v13.2h-21.9v61.5H419z"/>
			<linearGradient id="SVGID_4_" gradientUnits="userSpaceOnUse" x1="475.4583" y1="536.551" x2="475.4583" y2="464.6912">
				<stop  offset="0" style="stop-color:#4D4298"/>
				<stop  offset="1" style="stop-color:#6C58C9"/>
			</linearGradient>
			<path class="st3" d="M459.2,523.3v-28c0-5.6,0.8-10.4,2.5-14.2c1.7-3.8,3.9-6.9,6.8-9.2c2.7-2.2,6-3.8,9.7-4.8
				c3.7-1,7.5-1.5,11.4-1.5c0.3,0,0.6,0,1.1,0c0.4,0,0.8,0,1.1,0v15.4h-5c-4.2,0-7.3,1-9.3,3c-2,2-3,5.2-3,9.6v29.7H459.2z"/>
			<linearGradient id="SVGID_5_" gradientUnits="userSpaceOnUse" x1="516.393" y1="536.551" x2="516.393" y2="464.6912">
				<stop  offset="0" style="stop-color:#4D4298"/>
				<stop  offset="1" style="stop-color:#6C58C9"/>
			</linearGradient>
			<path class="st4" d="M530.2,520.9c-3,1.6-6.3,2.6-9.7,2.9c-3.4,0.4-6.4,0.5-9,0.5c-5.2,0-9.8-1.4-13.7-4.2
				c-3.9-2.8-5.9-7.5-5.9-14c0-6.1,1.8-10.4,5.3-13c3.5-2.6,8.1-4.3,13.6-5.2c0.7,0,1.6-0.1,2.6-0.3c1-0.2,2.2-0.4,3.5-0.5
				c6.4-0.9,9.6-2.8,9.6-5.6c0-2.2-1.1-3.6-3.4-4.2c-2.3-0.6-4.3-1-6.2-1c-2,0-3.8,0.3-5.4,0.9c-1.6,0.6-2.8,1.7-3.5,3.3h-14.6
				c0.6-4.5,2.6-8.2,6.1-11.1c3.9-3.3,9.5-5,16.7-5c8.1,0,14.2,1.4,18.2,4.1c4.2,2.9,6.3,6.9,6.3,12.2v19.8c0,5.8-1,10.3-3.1,13.6
				C535.6,517.1,533.1,519.4,530.2,520.9z M526.7,494.2c-2,1-4.9,2-8.5,2.8l-5,1.1c-2.6,0.7-4.5,1.7-5.6,2.8c-1,1.6-1.5,3.2-1.5,4.8
				c0,2.2,0.7,3.9,2,5.2c1.3,1.2,3.2,1.7,5.6,1.7c4.1,0,7.2-1.2,9.6-3.5c2.3-2.3,3.5-5.5,3.5-9.6V494.2z"/>
			<linearGradient id="SVGID_6_" gradientUnits="userSpaceOnUse" x1="567.8621" y1="536.551" x2="567.8621" y2="464.6912">
				<stop  offset="0" style="stop-color:#4D4298"/>
				<stop  offset="1" style="stop-color:#6C58C9"/>
			</linearGradient>
			<path class="st5" d="M583.2,505.5H594c-1.6,6.1-4.6,10.7-9.1,13.9c-4.5,3.3-10.1,5-16.9,5c-8.3,0-14.7-2.7-19.3-8
				c-4.6-5.2-6.9-12.7-6.9-22.4c0-9.3,2.2-16.5,6.7-21.7c4.6-5.4,11.1-8,19.3-8c8.7,0,15.4,2.6,20.2,7.8c2.6,3.2,4.5,6.9,5.6,11.1
				h-15.2c-0.7-1.4-1.4-2.5-2.2-3.3c-1.9-2-4.6-3-8-3c-3.2,0-5.8,1-7.8,3c-2.6,2.9-3.9,7.7-3.9,14.3c0,6.7,1.3,11.4,3.9,14.1
				c1.9,2.3,4.7,3.5,8.5,3.5c2.5,0,4.6-0.5,6.3-1.5c0.4-0.1,0.8-0.4,1.2-0.8c0.4-0.4,0.8-0.8,1.2-1.2c0.3-0.4,0.9-1,1.7-1.7
				C580.1,505.8,581.4,505.5,583.2,505.5z"/>
			<linearGradient id="SVGID_7_" gradientUnits="userSpaceOnUse" x1="622.4741" y1="536.551" x2="622.4741" y2="464.6912">
				<stop  offset="0" style="stop-color:#4D4298"/>
				<stop  offset="1" style="stop-color:#6C58C9"/>
			</linearGradient>
			<path class="st6" d="M611.6,465.5v21.3l18.5-21.3h18.2l-20.6,22.1l20.8,35.6h-18.2l-10.6-19.5c-2.2-3.9-4.1-5.6-5.6-5
				c-1.6,0.6-2.4,1.4-2.4,2.6v8v13.9h-15.2v-74.7h7.8c2,0,3.8,0.7,5.2,2.2c1.4,1.4,2.2,3.1,2.2,5V465.5z"/>
			<linearGradient id="SVGID_8_" gradientUnits="userSpaceOnUse" x1="676.4409" y1="536.551" x2="676.4409" y2="464.6912">
				<stop  offset="0" style="stop-color:#4D4298"/>
				<stop  offset="1" style="stop-color:#6C58C9"/>
			</linearGradient>
			<path class="st7" d="M691.3,505.5h10.9c-1.6,6.1-4.6,10.7-9.1,13.9c-4.5,3.3-10.1,5-16.9,5c-8.3,0-14.7-2.7-19.3-8
				c-4.6-5.2-6.9-12.7-6.9-22.4c0-9.3,2.2-16.5,6.7-21.7c4.6-5.4,11.1-8,19.3-8c8.7,0,15.4,2.6,20.2,7.8c4.6,5.4,6.9,12.8,6.9,22.4
				c0,0.6,0,1.1,0,1.5c0,0.4,0,0.7,0,0.9c0,0.7-0.1,1.2-0.2,1.5h-37.6c0.1,4.5,1.2,7.8,3.3,10c1.9,2.3,4.7,3.5,8.5,3.5
				c2.5,0,4.6-0.5,6.3-1.5c0.4-0.1,0.8-0.4,1.2-0.8c0.4-0.4,0.8-0.8,1.2-1.2c0.1-0.4,0.7-1,1.6-1.7
				C688.2,505.8,689.6,505.5,691.3,505.5z M665.3,488.5h22.1c-0.3-3.9-1.3-6.8-3-8.7c-1.9-2-4.6-3-8-3c-3.2,0-5.8,1-7.8,3
				C666.5,481.9,665.4,484.8,665.3,488.5z"/>
			<linearGradient id="SVGID_9_" gradientUnits="userSpaceOnUse" x1="721.7216" y1="536.551" x2="721.7216" y2="464.6912">
				<stop  offset="0" style="stop-color:#4D4298"/>
				<stop  offset="1" style="stop-color:#6C58C9"/>
			</linearGradient>
			<path class="st8" d="M705.4,523.3v-28c0-5.6,0.8-10.4,2.5-14.2c1.7-3.8,3.9-6.9,6.8-9.2c2.8-2.2,6-3.8,9.7-4.8
				c3.7-1,7.5-1.5,11.4-1.5c0.3,0,0.6,0,1.1,0s0.8,0,1.1,0v15.4h-5c-4.2,0-7.3,1-9.3,3c-2,2-3,5.2-3,9.6v29.7H705.4z"/>
		</g>
	</g>
	<g>
		<g>
			<linearGradient id="SVGID_10_" gradientUnits="userSpaceOnUse" x1="523.3212" y1="413.2724" x2="510.3301" y2="244.388">
				<stop  offset="0" style="stop-color:#4D4298"/>
				<stop  offset="1" style="stop-color:#6C58C9"/>
			</linearGradient>
			<path class="st9" d="M584.6,206.1c2.1,10.6,3.2,22.1,3.2,34.5c0,34-7.9,60.7-23.7,80.1c-15.8,18.8-37.3,28.2-64.6,28.2
				c-27.9,0-49.4-9.4-64.6-28.2c-12.4-14.9-19.6-35.5-21.9-61.8c-0.1,0.6-0.3,1.5-0.3,2c0.6,20.3,12.3,73.4-25.2,99.9
				c27.3,29.1,64.6,43.7,111.9,43.7c46.7,0,84-14.6,111.9-43.7c16.5-18,27.9-39.7,34.4-65.2c-0.1,0-0.1,0-0.2,0
				C604.4,293.6,591.5,232.3,584.6,206.1z"/>
			<linearGradient id="SVGID_11_" gradientUnits="userSpaceOnUse" x1="462.0432" y1="151.1676" x2="545.4794" y2="348.7292">
				<stop  offset="0" style="stop-color:#FF699D"/>
				<stop  offset="1" style="stop-color:#FECB9A"/>
			</linearGradient>
			<path class="st10" d="M611.5,119.6C582.3,89.9,545,75,499.5,75c-46.1,0-83.4,14.9-111.9,44.6c-26.7,29.7-40,70.1-40,121
				s13.3,91,40,120.1c37.5-26.5,25.7-79.6,25.2-99.9c0-0.5,0.2-1.3,0.3-2c-0.5-5.8-0.8-11.9-0.8-18.3c0-35.2,7.6-62.2,22.7-81
				c15.2-18.8,36.7-28.2,64.6-28.2c27.3,0,48.8,9.4,64.6,28.2c10,12.7,16.8,28.2,20.5,46.4c6.9,26.2,19.8,87.6,61.1,89.4
				c0.1,0,0.1,0,0.2,0c4.3-16.7,6.5-34.9,6.5-54.9C652.4,190.3,638.8,149.9,611.5,119.6z"/>
			<g>
				<path d="M415.6,277.2L415.6,277.2c-1.2-5.8-2-11.9-2.6-18.4c-0.1,0.6-0.3,1.5-0.3,2c0.6,20.3,12.3,73.4-25.2,99.9
					C407.6,349.7,425.4,323.6,415.6,277.2z"/>
			</g>
			<g>
				<path class="st11" d="M499.5,131.4c-27.9,0-49.4,9.4-64.6,28.2c-15.2,18.8-22.7,45.8-22.7,81c0,6.4,0.3,12.4,0.8,18.3
					c2.3,26.3,9.5,46.9,21.9,61.8c15.2,18.8,36.7,28.2,64.6,28.2c27.3,0,48.8-9.4,64.6-28.2c15.8-19.4,23.7-46.1,23.7-80.1
					c0-6.2-0.3-12.2-0.8-17.9c-0.9-5.7-1.7-11.3-2.4-16.6c-3.7-18.3-10.5-33.8-20.5-46.4C548.4,140.8,526.8,131.4,499.5,131.4z"/>
				<path d="M584.6,206.1c0.7,5.4,1.5,11,2.4,16.6C586.5,216.9,585.7,211.4,584.6,206.1z"/>
				<path d="M645.7,295.5c-41.3-1.9-54.2-63.2-61.1-89.4c1.1,5.3,1.9,10.8,2.4,16.6c5.4,33.4,16.8,69.6,56.8,79.6
					c0.7-2.3,1.5-4.4,2.1-6.8C645.8,295.5,645.8,295.5,645.7,295.5z"/>
			</g>
		</g>
		
			<radialGradient id="SVGID_12_" cx="498.4866" cy="420.3331" r="119.9458" gradientTransform="matrix(1 0 0 8.486547e-02 0 384.6614)" gradientUnits="userSpaceOnUse">
			<stop  offset="0" style="stop-color:#231F20;stop-opacity:0.6"/>
			<stop  offset="1" style="stop-color:#FFFFFF;stop-opacity:0"/>
		</radialGradient>
		<ellipse class="st12" cx="498.5" cy="420.3" rx="147.4" ry="11.6"/>
	</g>
</g>
</svg>
